<svg xmlns="http://www.w3.org/2000/svg" width="107" height="81" viewBox="0 0 107 81">
  <g id="Сгруппировать_625" data-name="Сгруппировать 625" transform="translate(-704 -1287)">
    <g id="picture_window" data-name="picture window" transform="translate(694 1287)">
      <path id="Контур_5772" data-name="Контур 5772" d="M50.193,0H13.807A3.812,3.812,0,0,0,10,3.807V60.193A3.812,3.812,0,0,0,13.807,64H50.193A3.812,3.812,0,0,0,54,60.193V3.807A3.812,3.812,0,0,0,50.193,0ZM52,60.193A1.81,1.81,0,0,1,50.193,62H13.807A1.81,1.81,0,0,1,12,60.193V3.807A1.81,1.81,0,0,1,13.807,2H50.193A1.81,1.81,0,0,1,52,3.807Z" fill="#449812"/>
      <path id="Контур_5773" data-name="Контур 5773" d="M49,4H15a1,1,0,0,0-1,1V59a1,1,0,0,0,1,1H49a1,1,0,0,0,1-1V5A1,1,0,0,0,49,4ZM48,58H16V6H48Z" fill="#449812"/>
      <rect id="Прямоугольник_160" data-name="Прямоугольник 160" width="25.456" height="2" transform="translate(22.293 40.293) rotate(-45)" fill="#449812"/>
      <rect id="Прямоугольник_161" data-name="Прямоугольник 161" width="12.728" height="2" transform="translate(27.294 41.292) rotate(-45)" fill="#449812"/>
      <rect id="Прямоугольник_162" data-name="Прямоугольник 162" width="14.142" height="2" transform="translate(25.293 31.292) rotate(-45)" fill="#449812"/>
    </g>
    <g id="Сгруппировать_624" data-name="Сгруппировать 624" transform="translate(32 -8)">
      <rect id="Прямоугольник_163" data-name="Прямоугольник 163" width="62" height="62" transform="translate(695 1304)" fill="#e8e8e8"/>
      <g id="sliding_glass_door" data-name="sliding glass door" transform="translate(694 1303)">
        <path id="Контур_5747" data-name="Контур 5747" d="M62,0H2A2,2,0,0,0,0,2V62a2,2,0,0,0,2,2H62a2,2,0,0,0,2-2V2A2,2,0,0,0,62,0Zm0,62H2V2H62Z" fill="#2b2b29"/>
        <path id="Контур_5748" data-name="Контур 5748" d="M5,61H59a2,2,0,0,0,2-2V5a2,2,0,0,0-2-2H5A2,2,0,0,0,3,5V59A2,2,0,0,0,5,61Zm54-2H33V5H59ZM5,5H31V59H5Z" fill="#2b2b29"/>
        <path id="Контур_5749" data-name="Контур 5749" d="M4.858,30H33.142v2H4.858Z" transform="translate(-16.355 22.515) rotate(-45)" fill="#2b2b29"/>
        <path id="Контур_5750" data-name="Контур 5750" d="M10.722,36.5H26.278v2H10.722Z" transform="translate(-21.098 24.065) rotate(-45)" fill="#2b2b29"/>
        <path id="Контур_5751" data-name="Контур 5751" d="M10.515,24H27.486v2H10.515Z" transform="translate(-12.113 20.757) rotate(-45)" fill="#2b2b29"/>
        <path id="Контур_5752" data-name="Контур 5752" d="M30.858,30H59.142v2H30.858Z" transform="translate(-8.74 40.899) rotate(-45)" fill="#2b2b29"/>
        <path id="Контур_5753" data-name="Контур 5753" d="M36.722,36.5H52.278v2H36.722Z" transform="translate(-13.483 42.45) rotate(-45)" fill="#2b2b29"/>
        <path id="Контур_5754" data-name="Контур 5754" d="M36.515,24H53.486v2H36.515Z" transform="translate(-4.497 39.142) rotate(-45)" fill="#2b2b29"/>
        <path id="Контур_5755" data-name="Контур 5755" d="M11,36V29a1,1,0,0,0-.684-.948l-3-1a.987.987,0,0,0-.9.136A1,1,0,0,0,6,28v9a1,1,0,0,0,1,1,.983.983,0,0,0,.316-.052l3-1A1,1,0,0,0,11,36Zm-2-.721-1,.333V29.388l1,.333Z" fill="#2b2b29"/>
        <path id="Контур_5756" data-name="Контур 5756" d="M53,29v7a1,1,0,0,0,.684.948l3,1A.983.983,0,0,0,57,38a1,1,0,0,0,1-1V28a1,1,0,0,0-.416-.812.988.988,0,0,0-.9-.136l-3,1A1,1,0,0,0,53,29Zm2,.721,1-.333v6.224l-1-.333Z" fill="#2b2b29"/>
      </g>
    </g>
    <g id="Сгруппировать_623" data-name="Сгруппировать 623" transform="translate(32 -16)">
      <rect id="Прямоугольник_164" data-name="Прямоугольник 164" width="42" height="62" rx="3" transform="translate(736 1321)" fill="#e8e8e8"/>
      <g id="picture_window-2" data-name="picture window" transform="translate(725 1320)">
        <path id="Контур_5772-2" data-name="Контур 5772" d="M50.193,0H13.807A3.812,3.812,0,0,0,10,3.807V60.193A3.812,3.812,0,0,0,13.807,64H50.193A3.812,3.812,0,0,0,54,60.193V3.807A3.812,3.812,0,0,0,50.193,0ZM52,60.193A1.81,1.81,0,0,1,50.193,62H13.807A1.81,1.81,0,0,1,12,60.193V3.807A1.81,1.81,0,0,1,13.807,2H50.193A1.81,1.81,0,0,1,52,3.807Z" fill="#449812"/>
        <path id="Контур_5773-2" data-name="Контур 5773" d="M49,4H15a1,1,0,0,0-1,1V59a1,1,0,0,0,1,1H49a1,1,0,0,0,1-1V5A1,1,0,0,0,49,4ZM48,58H16V6H48Z" fill="#449812"/>
        <rect id="Прямоугольник_160-2" data-name="Прямоугольник 160" width="25.456" height="2" transform="translate(22.293 40.293) rotate(-45)" fill="#449812"/>
        <rect id="Прямоугольник_161-2" data-name="Прямоугольник 161" width="12.728" height="2" transform="translate(27.294 41.292) rotate(-45)" fill="#449812"/>
        <rect id="Прямоугольник_162-2" data-name="Прямоугольник 162" width="14.142" height="2" transform="translate(25.293 31.292) rotate(-45)" fill="#449812"/>
      </g>
    </g>
  </g>
</svg>
