<svg id="Сгруппировать_671" data-name="Сгруппировать 671" xmlns="http://www.w3.org/2000/svg" width="33.821" height="56.403" viewBox="0 0 33.821 56.403">
  <path id="Контур_5820" data-name="Контур 5820" d="M353.778,179.89c0-.813.813-1.242,1.8-.985l15.626,4.11a2.3,2.3,0,0,1,1.8,1.927v26.029a2.3,2.3,0,0,1-1.8,1.927l-15.626,4.11c-.985.257-1.8-.171-1.8-.985V179.89Zm24.488,37.246a2.4,2.4,0,0,0,1.755-1.969V180.832a2.356,2.356,0,0,0-1.755-1.969l-30.31-8.99c-.985-.3-1.755.128-1.755.942v54.328c0,.813.813,1.242,1.755.942l30.31-8.948Z" transform="translate(-346.2 -169.776)" fill="#bf2e00"/>
  <path id="Контур_5821" data-name="Контур 5821" d="M385.171,193.9c.428,0,.771.642.771,1.456v35.962c0,.813-.342,1.456-.771,1.456s-.771-.642-.771-1.456V195.356c0-.813.342-1.456.771-1.456Z" transform="translate(-368.046 -183.572)" fill="#bf2e00"/>
</svg>
