<svg xmlns="http://www.w3.org/2000/svg" width="240" height="108.853" viewBox="0 0 240 108.853">
  <g id="Лого" transform="translate(-73.7 -169.776)">
    <g id="Сгруппировать_672" data-name="Сгруппировать 672" transform="translate(73.7 169.776)">
      <path id="Контур_5807" data-name="Контур 5807" d="M312.713,258.263c0,.956-.956,1.5-2.185,1.161l-18.777-4.984a2.9,2.9,0,0,1-2.185-2.321V220.846a2.728,2.728,0,0,1,2.185-2.321l18.777-4.984c1.161-.341,2.185.2,2.185,1.161v43.562Zm-29.5-44.723a2.889,2.889,0,0,0-2.117,2.39v41.24a2.889,2.889,0,0,0,2.117,2.39l36.461,10.788c1.161.341,2.117-.137,2.117-1.161V203.913c0-.956-.956-1.5-2.117-1.161l-36.461,10.788Z" transform="translate(-139.49 -180.204)" fill="#47a510"/>
      <g id="Сгруппировать_669" data-name="Сгруппировать 669" transform="translate(0 0.084)">
        <path id="Контур_5808" data-name="Контур 5808" d="M94.935,185.526V192.9H90.906v-3.892H77.728V192.9H73.7v-7.374h.751c2.458-.068,3.073-4.1,3.209-9.354l.2-5.872H92.34v15.158h2.595Zm-15.294,0h8.33V173.851H81.552l-.068,2.731C81.416,180.542,80.938,184.024,79.64,185.526Z" transform="translate(-73.7 -170.027)" fill="#3e3d40"/>
        <path id="Контур_5809" data-name="Контур 5809" d="M107.1,179.6c0-5.531,4.3-9.7,10.242-9.7,5.872,0,10.242,4.1,10.242,9.7s-4.37,9.7-10.242,9.7C111.47,189.223,107.1,185.126,107.1,179.6Zm16.114,0a5.874,5.874,0,1,0-5.872,6.009A5.74,5.74,0,0,0,123.214,179.6Z" transform="translate(-84.295 -169.9)" fill="#3e3d40"/>
        <path id="Контур_5810" data-name="Контур 5810" d="M159,189.008v-11.2l-5.531,9.218h-1.912l-5.531-9.013v10.993H142V170.3h3.551l7.033,11.607,6.9-11.607h3.551v18.708Z" transform="translate(-95.366 -170.027)" fill="#3e3d40"/>
        <path id="Контур_5811" data-name="Контур 5811" d="M191.348,185.08h-8.671l-1.639,4.028H176.6l8.33-18.708h4.3l8.33,18.708h-4.575Zm-1.366-3.277-2.936-7.169-2.936,7.169Z" transform="translate(-106.341 -170.059)" fill="#3e3d40"/>
        <path id="Контур_5812" data-name="Контур 5812" d="M235.649,170.4v18.708H211V170.4h4.3v15.158h5.872V170.4h4.3v15.158h5.872V170.4Z" transform="translate(-117.253 -170.059)" fill="#3e3d40"/>
        <path id="Контур_5813" data-name="Контур 5813" d="M271.07,170.4v18.708h-4.3v-7.647H258.3v7.647H254V170.4h4.3v7.374h8.467V170.4Z" transform="translate(-130.893 -170.059)" fill="#3e3d40"/>
        <path id="Контур_5814" data-name="Контур 5814" d="M285.9,170.4h4.3v12.154l8.945-12.154h4.028v18.708h-4.233V176.955L290,189.108h-4.1Z" transform="translate(-141.012 -170.059)" fill="#3e3d40"/>
        <path id="Контур_5815" data-name="Контур 5815" d="M332.475,185.626v3.482H318V170.4h14.134v3.482H322.3v4.028h8.671v3.346H322.3v4.3h10.174Z" transform="translate(-151.195 -170.059)" fill="#3e3d40"/>
      </g>
      <g id="Сгруппировать_670" data-name="Сгруппировать 670" transform="translate(1.092 38.525)">
        <path id="Контур_5816" data-name="Контур 5816" d="M95.715,226.2c-11.744,0-20.415,8.193-20.415,19.255s8.6,19.255,20.415,19.255c11.744,0,20.415-8.125,20.415-19.255S107.391,226.2,95.715,226.2Zm0,31.2c-6.691,0-11.676-4.848-11.676-11.949s4.984-11.949,11.676-11.949,11.676,4.848,11.676,11.949S102.338,257.4,95.715,257.4Z" transform="translate(-75.3 -226.2)" fill="#3e3d40"/>
        <path id="Контур_5817" data-name="Контур 5817" d="M168.84,245.126,181.061,227.1H171.98l-9.832,15.09H156V227.1h-8.6v37.28H156V249.359h5.94l9.7,15.021h9.832Z" transform="translate(-98.171 -226.486)" fill="#3e3d40"/>
        <path id="Контур_5818" data-name="Контур 5818" d="M228.736,227.1v14.68H211.8V227.1h-8.6v37.28h8.6V249.086h16.933V264.38h8.6V227.1Z" transform="translate(-115.871 -226.486)" fill="#3e3d40"/>
        <path id="Контур_5819" data-name="Контур 5819" d="M286.1,227.1h-8.6l-16.8,37.622h8.944l3.346-8.057H290.47l3.346,8.057h1.775V248.2Zm-10.378,22.942,5.94-14.407,5.94,14.407Z" transform="translate(-134.111 -226.486)" fill="#3e3d40"/>
      </g>
      <g id="Сгруппировать_671" data-name="Сгруппировать 671" transform="translate(186.06)">
        <path id="Контур_5820" data-name="Контур 5820" d="M358.285,185.906c0-1.3,1.3-1.98,2.868-1.57l24.922,6.555a3.671,3.671,0,0,1,2.868,3.073v41.513a3.671,3.671,0,0,1-2.868,3.073L361.153,245.1c-1.57.41-2.868-.273-2.868-1.57V185.906Zm39.055,59.4a3.82,3.82,0,0,0,2.8-3.141v-54.76a3.757,3.757,0,0,0-2.8-3.141L349,169.929c-1.57-.478-2.8.2-2.8,1.5v86.646c0,1.3,1.3,1.98,2.8,1.5l48.341-14.27Z" transform="translate(-346.2 -169.776)" fill="#fc3d04"/>
        <path id="Контур_5821" data-name="Контур 5821" d="M385.629,193.9c.683,0,1.229,1.024,1.229,2.321v57.354c0,1.3-.546,2.321-1.229,2.321s-1.229-1.024-1.229-2.321V196.221c0-1.3.546-2.321,1.229-2.321Z" transform="translate(-358.318 -177.429)" fill="#fc3d04"/>
      </g>
      <path id="Контур_5822" data-name="Контур 5822" d="M321.95,256.683c0,.41-1.024.683-2.253.683H292.453c-1.229,0-2.253-.341-2.253-.683,0-.41,1.024-.683,2.253-.683H319.7c1.229,0,2.253.273,2.253.683Z" transform="translate(-142.376 -197.127)" fill="#47a510"/>
      <path id="Контур_5823" data-name="Контур 5823" d="M309.888,264.725c-.478,0-.888-.751-.888-1.775V220.275c0-.956.41-1.775.888-1.775s.956.751.956,1.775V262.95c0,1.024-.41,1.775-.956,1.775Z" transform="translate(-148.34 -185.232)" fill="#47a510"/>
    </g>
    <g id="Сгруппировать_674" data-name="Сгруппировать 674" transform="translate(101.148 268.592)">
      <g id="Сгруппировать_673" data-name="Сгруппировать 673" transform="translate(0 0)">
        <path id="Контур_5824" data-name="Контур 5824" d="M113.9,318.46a3.931,3.931,0,0,1,4.165-3.96,3.883,3.883,0,0,1,3.141,1.366l-1.161,1.024a2.42,2.42,0,0,0-1.912-.888,2.458,2.458,0,0,0,0,4.916,2.54,2.54,0,0,0,1.912-.888l1.161,1.024a3.979,3.979,0,0,1-3.141,1.366A3.892,3.892,0,0,1,113.9,318.46Z" transform="translate(-113.9 -314.5)" fill="#47a510"/>
        <path id="Контур_5825" data-name="Контур 5825" d="M125.1,320.173a3.071,3.071,0,0,1,3.277-3.073,2.976,2.976,0,0,1,3.209,3.073,3.013,3.013,0,0,1-3.209,3.073A3.11,3.11,0,0,1,125.1,320.173Zm4.78,0a1.508,1.508,0,1,0-3,0,1.51,1.51,0,0,0,1.5,1.639A1.474,1.474,0,0,0,129.88,320.173Z" transform="translate(-117.453 -315.325)" fill="#47a510"/>
        <path id="Контур_5826" data-name="Контур 5826" d="M141.931,321.533c0,1.024-.751,1.707-2.39,1.707H136.4V317.3h3c1.5,0,2.39.546,2.39,1.5a1.4,1.4,0,0,1-.888,1.3A1.452,1.452,0,0,1,141.931,321.533Zm-3.96-1.775h1.3c.615,0,.888-.2.888-.615s-.341-.614-.888-.614h-1.3Zm2.39,1.639c0-.478-.273-.683-.888-.683h-1.5v1.3H139.4C140.019,322.08,140.36,321.875,140.36,321.4Z" transform="translate(-121.037 -315.388)" fill="#47a510"/>
        <path id="Контур_5827" data-name="Контур 5827" d="M152.818,320.2a2.908,2.908,0,0,1-2.936,3.073,2.221,2.221,0,0,1-1.775-.683v2.731H146.4v-8.057h1.639v.683a2.2,2.2,0,0,1,1.844-.751A2.85,2.85,0,0,1,152.818,320.2Zm-1.775,0a1.508,1.508,0,1,0-1.5,1.639A1.474,1.474,0,0,0,151.043,320.2Z" transform="translate(-124.209 -315.356)" fill="#47a510"/>
        <path id="Контур_5828" data-name="Контур 5828" d="M163.045,320.619h-4.438a1.552,1.552,0,0,0,1.707,1.161,2.25,2.25,0,0,0,1.5-.546l.888.956a3.135,3.135,0,0,1-2.458.956,3.079,3.079,0,1,1-.2-6.145,2.938,2.938,0,0,1,3.073,3.072A1.922,1.922,0,0,0,163.045,320.619Zm-4.506-.956h2.936a1.407,1.407,0,0,0-1.434-1.229A1.428,1.428,0,0,0,158.539,319.663Z" transform="translate(-127.54 -315.293)" fill="#47a510"/>
        <path id="Контур_5829" data-name="Контур 5829" d="M173.6,323.209v-3.551l-1.775,2.936h-.751l-1.707-3v3.551H167.8V317.2h1.775l1.912,3.414,1.98-3.414h1.57v5.94H173.6Z" transform="translate(-130.998 -315.357)" fill="#47a510"/>
        <path id="Контур_5830" data-name="Контур 5830" d="M186.445,320.619h-4.438a1.552,1.552,0,0,0,1.707,1.161,2.25,2.25,0,0,0,1.5-.546l.888.956a3.135,3.135,0,0,1-2.458.956,3.079,3.079,0,1,1-.2-6.145,2.938,2.938,0,0,1,3.073,3.072C186.513,320.346,186.445,320.482,186.445,320.619Zm-4.506-.956h2.936a1.407,1.407,0,0,0-1.434-1.229A1.428,1.428,0,0,0,181.939,319.663Z" transform="translate(-134.963 -315.293)" fill="#47a510"/>
        <path id="Контур_5831" data-name="Контур 5831" d="M191.3,317.3h1.707v2.321H195.6V317.3h1.707v5.94H195.6v-2.185h-2.595v2.185H191.3Z" transform="translate(-138.452 -315.388)" fill="#47a510"/>
        <path id="Контур_5832" data-name="Контур 5832" d="M202.5,317.3h1.707v2.321H206.8V317.3h1.707v5.94H206.8v-2.185h-2.595v2.185H202.5Z" transform="translate(-142.005 -315.388)" fill="#47a510"/>
        <path id="Контур_5833" data-name="Контур 5833" d="M212.9,320.173a3.071,3.071,0,0,1,3.277-3.073,3.075,3.075,0,1,1,0,6.145A3.071,3.071,0,0,1,212.9,320.173Zm4.78,0a1.508,1.508,0,1,0-3,0,1.508,1.508,0,1,0,3,0Z" transform="translate(-145.304 -315.325)" fill="#47a510"/>
        <path id="Контур_5834" data-name="Контур 5834" d="M240.971,320.913v3.073h-1.639v-1.57h-5.394v1.57H232.3v-3.073h.273c1.024,0,1.229-1.707,1.3-3.824l.068-2.39h5.94v6.213Zm-6.282,0H238.1v-4.78h-2.595v1.092C235.441,318.933,235.236,320.3,234.69,320.913Z" transform="translate(-151.458 -314.563)" fill="#47a510"/>
        <path id="Контур_5835" data-name="Контур 5835" d="M245.8,320.173a3.071,3.071,0,0,1,3.277-3.073,3.075,3.075,0,1,1,0,6.145A3.071,3.071,0,0,1,245.8,320.173Zm4.711,0a1.508,1.508,0,1,0-3,0,1.51,1.51,0,0,0,1.5,1.639A1.474,1.474,0,0,0,250.511,320.173Z" transform="translate(-155.74 -315.325)" fill="#47a510"/>
        <path id="Контур_5836" data-name="Контур 5836" d="M256.3,320.173a3.071,3.071,0,0,1,3.277-3.073,2.814,2.814,0,0,1,2.663,1.5l-1.3.683a1.558,1.558,0,0,0-1.3-.819,1.64,1.64,0,0,0,0,3.277,1.4,1.4,0,0,0,1.3-.819l1.3.751a2.747,2.747,0,0,1-2.663,1.5A2.981,2.981,0,0,1,256.3,320.173Z" transform="translate(-159.071 -315.325)" fill="#47a510"/>
        <path id="Контур_5837" data-name="Контур 5837" d="M271.067,318.734h-1.98v4.506H267.38v-4.506H265.4V317.3h5.667Z" transform="translate(-161.958 -315.388)" fill="#47a510"/>
        <path id="Контур_5838" data-name="Контур 5838" d="M280.66,317.268,278,323.55a2.393,2.393,0,0,1-2.458,1.844,2.492,2.492,0,0,1-1.639-.546l.615-1.229a1.632,1.632,0,0,0,.956.341c.478,0,.751-.2.956-.751v-.068L273.9,317.2h1.775l1.639,4.028,1.639-4.028h1.707Z" transform="translate(-164.654 -315.356)" fill="#47a510"/>
        <path id="Контур_5839" data-name="Контур 5839" d="M290.872,317.3v5.94h-1.707v-4.506h-2.458v4.506H285V317.3Z" transform="translate(-168.175 -315.388)" fill="#47a510"/>
        <path id="Контур_5840" data-name="Контур 5840" d="M296,317.3h1.707v2.321H300.3V317.3h1.707v5.94H300.3v-2.185h-2.595v2.185H296Z" transform="translate(-171.664 -315.388)" fill="#47a510"/>
        <path id="Контур_5841" data-name="Контур 5841" d="M306.5,320.173a3.071,3.071,0,0,1,3.277-3.073,2.976,2.976,0,0,1,3.209,3.073,3.013,3.013,0,0,1-3.209,3.073A3.11,3.11,0,0,1,306.5,320.173Zm4.711,0a1.508,1.508,0,1,0-3,0,1.51,1.51,0,0,0,1.5,1.639A1.474,1.474,0,0,0,311.211,320.173Z" transform="translate(-174.995 -315.325)" fill="#47a510"/>
        <path id="Контур_5842" data-name="Контур 5842" d="M333.584,314.668l-3.277,6.077a2.979,2.979,0,0,1-2.595,1.775,2.678,2.678,0,0,1-1.229-.273l.41-1.366a3.522,3.522,0,0,0,.751.137,1.322,1.322,0,0,0,1.092-.683l.068-.068-3-5.667h1.912l2.048,4.1,2.117-4.1h1.707Z" transform="translate(-181.117 -314.532)" fill="#47a510"/>
        <path id="Контур_5843" data-name="Контур 5843" d="M346.64,320.2a3.165,3.165,0,0,1-6.213.751h-.819v2.253H337.9v-5.94h1.707v2.185h.819a3.178,3.178,0,0,1,6.213.751Zm-1.707,0a1.447,1.447,0,1,0-1.434,1.639A1.461,1.461,0,0,0,344.933,320.2Z" transform="translate(-184.956 -315.356)" fill="#47a510"/>
        <path id="Контур_5844" data-name="Контур 5844" d="M356.667,318.734h-1.98v4.506H352.98v-4.506H351V317.3h5.667Z" transform="translate(-189.111 -315.388)" fill="#47a510"/>
        <path id="Контур_5845" data-name="Контур 5845" d="M360.7,317.3h1.707v2.321H365V317.3h1.707v5.94H365v-2.185h-2.595v2.185H360.7Z" transform="translate(-192.188 -315.388)" fill="#47a510"/>
        <path id="Контур_5846" data-name="Контур 5846" d="M371.1,320.173a3.071,3.071,0,0,1,3.277-3.073,2.976,2.976,0,0,1,3.209,3.073,3.013,3.013,0,0,1-3.209,3.073A3.11,3.11,0,0,1,371.1,320.173Zm4.779,0a1.508,1.508,0,1,0-3,0,1.508,1.508,0,1,0,3,0Z" transform="translate(-195.487 -315.325)" fill="#47a510"/>
      </g>
      <rect id="Прямоугольник_189" data-name="Прямоугольник 189" width="1.844" height="1.844" transform="translate(76.472 2.936)" fill="#3e3d40"/>
      <rect id="Прямоугольник_190" data-name="Прямоугольник 190" width="1.844" height="1.844" transform="translate(140.449 2.936)" fill="#3e3d40"/>
    </g>
  </g>
</svg>
