<svg xmlns="http://www.w3.org/2000/svg" width="95.775" height="67.341" viewBox="0 0 95.775 67.341">
  <path id="Icon_awesome-youtube" data-name="Icon awesome-youtube" d="M94.823,15.037a12.034,12.034,0,0,0-8.467-8.522C78.887,4.5,48.937,4.5,48.937,4.5s-29.949,0-37.418,2.014a12.034,12.034,0,0,0-8.467,8.522c-2,7.517-2,23.2-2,23.2s0,15.685,2,23.2a11.855,11.855,0,0,0,8.467,8.386c7.469,2.014,37.418,2.014,37.418,2.014s29.949,0,37.418-2.014a11.855,11.855,0,0,0,8.467-8.386c2-7.517,2-23.2,2-23.2s0-15.685-2-23.2ZM39.142,52.479V24L64.174,38.239,39.142,52.479Z" transform="translate(-1.05 -4.5)" fill="#fff"/>
</svg>
