<svg xmlns="http://www.w3.org/2000/svg" width="32" height="31.999" viewBox="0 0 32 31.999">
  <g id="Сгруппировать_836" data-name="Сгруппировать 836" transform="translate(-464 -34.001)">
    <path id="Контур_121" data-name="Контур 121" d="M16,0A16,16,0,1,0,32,16,16,16,0,0,0,16,0Z" transform="translate(464 34)" fill="#b3bdbf"/>
    <path id="location-pin" d="M43.922,0a6.183,6.183,0,0,0-6.175,6.178c0,5.075,5.56,10.031,5.8,10.239a.572.572,0,0,0,.756,0c.237-.208,5.8-5.164,5.8-10.239A6.183,6.183,0,0,0,43.922,0Zm0,4.443a1.734,1.734,0,1,1-1.715,1.734A1.727,1.727,0,0,1,43.922,4.443Z" transform="translate(436.252 42.001)" fill="#fff"/>
  </g>
</svg>
