<svg xmlns="http://www.w3.org/2000/svg" width="32" height="31.999" viewBox="0 0 32 31.999">
  <g id="Сгруппировать_837" data-name="Сгруппировать 837" transform="translate(-1520 -8935.024)">
    <g id="Сгруппировать_621" data-name="Сгруппировать 621" transform="translate(1520 8935.024)">
      <g id="profile-user_1_" data-name="profile-user (1)">
        <path id="Контур_121" data-name="Контур 121" d="M16,0A16,16,0,1,0,32,16,16,16,0,0,0,16,0Z" transform="translate(0 -0.001)" fill="#b3bdbf"/>
      </g>
    </g>
    <path id="letter" d="M1.468,0H17.13a1.475,1.475,0,0,1,1.444,1.194L9.3,6.363.024,1.194A1.475,1.475,0,0,1,1.468,0ZM17.13,12.07H1.468A1.473,1.473,0,0,1,0,10.6V2.3L9.06,7.351a.515.515,0,0,0,.24.064.463.463,0,0,0,.24-.064L18.6,2.3v8.3A1.47,1.47,0,0,1,17.13,12.07Zm0,0" transform="translate(1527 8945.023)" fill="#fff"/>
  </g>
</svg>
