<svg xmlns="http://www.w3.org/2000/svg" width="39.52" height="39.521" viewBox="0 0 39.52 39.521">
  <g id="tools" transform="translate(-0.5 0.001)">
    <path id="Контур_5888" data-name="Контур 5888" d="M338.112,155.148a.772.772,0,1,1-.772.772A.772.772,0,0,1,338.112,155.148Zm0,0" transform="translate(-324.865 -143.173)" fill="#449812"/>
    <path id="Контур_5889" data-name="Контур 5889" d="M156.417,336.84a.772.772,0,1,1-.772.772A.772.772,0,0,1,156.417,336.84Zm0,0" transform="translate(-129.145 -310.84)" fill="#449812"/>
    <path id="Контур_5890" data-name="Контур 5890" d="M1.459,4.748a.771.771,0,0,1,.722.208l3.2,3.225H6.915L8.6,6.432V4.876L5.45,1.675A.772.772,0,0,1,5.753.4a7.721,7.721,0,0,1,8.731,2.814,7.63,7.63,0,0,1,1.191,6.5L21.362,15.4,30.834,5.91V4.046a.772.772,0,0,1,.375-.662L36.667.109a.771.771,0,0,1,.943.116l2.183,2.183a.773.773,0,0,1,.116.943L36.634,8.809a.772.772,0,0,1-.662.375H34.11l-9.473,9.494L30.3,24.343a7.724,7.724,0,0,1,9.316,9.922.772.772,0,0,1-1.279.3l-3.2-3.225H33.6L31.838,33.1v1.543l3.225,3.2a.772.772,0,0,1-.3,1.279A7.725,7.725,0,0,1,24.843,29.8l-4.549-4.549-1.042,1.132.478.478a.772.772,0,0,1-1.092,1.092l-.433-.433L8.428,38.14l-.022.023a4.632,4.632,0,0,1-6.55-6.55l.024-.023,10.637-9.758-.428-.428a.772.772,0,1,1,1.092-1.092l.475.475,1.134-1.041-4.571-4.571A7.723,7.723,0,0,1,.9,5.253a.771.771,0,0,1,.557-.505Zm31.784,3.12a.764.764,0,0,1,.546-.219h1.746l2.74-4.574L36.944,1.743l-4.566,2.74V6.229a.772.772,0,0,1-.226.545l-9.7,9.721,1.092,1.092ZM13.609,22.924,2.936,32.716A3.088,3.088,0,0,0,7.3,37.082l9.809-10.655Zm1.139-1.045,3.412,3.411L19.2,24.159l-3.32-3.32ZM8.218,13.893a6.169,6.169,0,0,0,1.973-.322.773.773,0,0,1,.792.186L26.262,29.035a.772.772,0,0,1,.186.792A6.181,6.181,0,0,0,32.3,37.976a6.323,6.323,0,0,0,.673-.036l-2.452-2.433a.772.772,0,0,1-.228-.548V32.775a.772.772,0,0,1,.226-.546l2.21-2.21a.772.772,0,0,1,.546-.226h2.184a.773.773,0,0,1,.548.228l2.432,2.452a6.245,6.245,0,0,0,.036-.673,6.181,6.181,0,0,0-8.148-5.853.771.771,0,0,1-.792-.186L14.258,10.483a.772.772,0,0,1-.186-.792A6.181,6.181,0,0,0,8.219,1.543a6.308,6.308,0,0,0-.693.038l2.4,2.437a.771.771,0,0,1,.222.542V6.743a.771.771,0,0,1-.216.536L7.8,9.489a.771.771,0,0,1-.555.236H5.06A.771.771,0,0,1,4.512,9.5L2.08,7.045a6.244,6.244,0,0,0-.036.673,6.182,6.182,0,0,0,6.175,6.175Zm0,0" transform="translate(0 0)" fill="#449812"/>
    <path id="Контур_5891" data-name="Контур 5891" d="M185.242,183.651l9.659,9.659a.772.772,0,1,1-1.092,1.092l-9.659-9.659a.772.772,0,1,1,1.092-1.092Zm0,0" transform="translate(-169.266 -169.268)" fill="#449812"/>
    <path id="Контур_5892" data-name="Контур 5892" d="M346.6,353.325a.772.772,0,1,1-1.09-1.093l6.958-6.935a.772.772,0,0,1,1.09,1.093Zm0,0" transform="translate(-340.374 -318.437)" fill="#449812"/>
  </g>
</svg>
