<svg xmlns="http://www.w3.org/2000/svg" width="53.477" height="39.274" viewBox="0 0 53.477 39.274">
  <g id="XMLID_1765_" transform="translate(0 -67.989)">
    <g id="XMLID_795_" transform="translate(0 67.989)">
      <path id="XMLID_798_" d="M52.9,88.709l-5.094-2.565-2.436-8.2a1.044,1.044,0,0,0-1-.747H35.512v-8.16a1.045,1.045,0,0,0-1.044-1.044H22.074a1.044,1.044,0,1,0,0,2.089H33.423V97.234H2.089V70.078H13.434a1.044,1.044,0,1,0,0-2.089H1.044A1.045,1.045,0,0,0,0,69.033v33.843a1.045,1.045,0,0,0,1.044,1.044H5.767a4.386,4.386,0,0,0,8.52,0h2.342a4.386,4.386,0,0,0,8.52,0H40.234a4.386,4.386,0,0,0,8.52,0h3.678a1.045,1.045,0,0,0,1.044-1.044V89.642A1.044,1.044,0,0,0,52.9,88.709Zm-1.514,3.826H48.665v-3.62l2.722,1.37Zm-7.8-13.253,1.944,6.548H35.512V79.282Zm-8.079,8.636H46.577v4.721a1.987,1.987,0,0,0,1.984,1.984h2.827v2.61H35.512Zm6.415,11.4a4.4,4.4,0,0,0-1.692,2.509H25.149a4.4,4.4,0,0,0-1.692-2.509Zm-23.6,0a4.4,4.4,0,0,0-1.692,2.509H14.287a4.4,4.4,0,0,0-1.692-2.509Zm-16.233,0h5.37a4.4,4.4,0,0,0-1.692,2.509H2.089Zm7.938,5.851a2.3,2.3,0,1,1,2.3-2.3A2.3,2.3,0,0,1,10.027,105.174Zm10.862,0a2.3,2.3,0,1,1,2.3-2.3A2.3,2.3,0,0,1,20.889,105.174Zm23.6,0a2.3,2.3,0,1,1,2.3-2.3A2.3,2.3,0,0,1,44.494,105.174Zm6.893-3.342H48.754a4.4,4.4,0,0,0-1.692-2.509h4.326Z" transform="translate(0 -67.989)" fill="#449812"/>
      <path id="XMLID_808_" d="M161.044,70.079a1.045,1.045,0,1,0-.738-.306A1.052,1.052,0,0,0,161.044,70.079Z" transform="translate(-143.289 -67.99)" fill="#449812"/>
      <path id="XMLID_811_" d="M93.462,159.447h13.369a1.045,1.045,0,0,0,1.044-1.044v-7.939a1.042,1.042,0,0,0,.418-.834v-4.6a1.045,1.045,0,0,0-1.044-1.044h-14.2A1.045,1.045,0,0,0,92,145.033v4.6a1.042,1.042,0,0,0,.418.834V158.4A1.044,1.044,0,0,0,93.462,159.447Zm1.044-8.773h4.6v6.685h-4.6Zm11.28,6.685h-4.6v-6.685h4.6Zm.418-8.773h-5.013v-2.507H106.2Zm-12.116-2.507H99.1v2.507H94.089Z" transform="translate(-82.391 -136.051)" fill="#449812"/>
    </g>
  </g>
</svg>
