<svg xmlns="http://www.w3.org/2000/svg" width="32" height="31.999" viewBox="0 0 32 31.999">
  <g id="Сгруппировать_837" data-name="Сгруппировать 837" transform="translate(-1357 -34)">
    <path id="Контур_121" data-name="Контур 121" d="M16,0A16,16,0,1,0,32,16,16,16,0,0,0,16,0Z" transform="translate(1357 33.999)" fill="#b3bdbf"/>
    <path id="Icon_awesome-phone-alt" data-name="Icon awesome-phone-alt" d="M15.531,11.3l-3.5-1.5a.749.749,0,0,0-.874.215L9.611,11.907A11.574,11.574,0,0,1,4.078,6.374L5.97,4.825a.748.748,0,0,0,.215-.874l-1.5-3.5A.754.754,0,0,0,3.828.019L.581.769A.749.749,0,0,0,0,1.5,14.487,14.487,0,0,0,14.489,15.988a.749.749,0,0,0,.731-.581l.749-3.247A.758.758,0,0,0,15.531,11.3Z" transform="translate(1365 41.788)" fill="#fff"/>
  </g>
</svg>
