<svg id="Сгруппировать_111" data-name="Сгруппировать 111" xmlns="http://www.w3.org/2000/svg" width="69" height="69" viewBox="0 0 69 69">
  <circle id="Эллипс_15" data-name="Эллипс 15" cx="34.5" cy="34.5" r="34.5" fill="#7360f2"/>
  <path id="Icon_awesome-viber" data-name="Icon awesome-viber" d="M27.854,3.119C27.06,2.388,23.847.057,16.685.025c0,0-8.444-.506-12.557,3.269C1.841,5.582,1.034,8.938.947,13.094S.753,25.039,8.26,27.151h.006L8.26,30.376s-.05,1.306.813,1.569c1.038.325,1.65-.669,2.644-1.738.544-.588,1.294-1.45,1.863-2.106a29.043,29.043,0,0,0,9.532-.7c1.038-.338,6.906-1.088,7.856-8.875.988-8.038-.475-13.113-3.113-15.407Zm.869,14.819c-.806,6.5-5.563,6.913-6.438,7.194a26.871,26.871,0,0,1-8.2.7s-3.25,3.919-4.263,4.938c-.331.331-.694.3-.688-.356,0-.431.025-5.356.025-5.356h0C2.8,23.295,3.172,16.663,3.241,13.194S3.966,6.882,5.9,4.969c3.481-3.156,10.65-2.688,10.65-2.688,6.056.025,8.957,1.85,9.632,2.463,2.231,1.913,3.369,6.488,2.538,13.194Zm-8.688-5.05a.4.4,0,0,1-.806.038,1.933,1.933,0,0,0-2.038-2.119A.4.4,0,0,1,17.235,10,2.718,2.718,0,0,1,20.035,12.888Zm1.269.706c.063-2.65-1.594-4.725-4.738-4.956a.4.4,0,0,1,.056-.806c3.625.263,5.556,2.756,5.488,5.781a.4.4,0,0,1-.806-.019Zm2.938.838a.4.4,0,0,1-.806.006C23.4,9.344,20,6.569,15.885,6.538a.4.4,0,0,1,0-.806C20.491,5.763,24.2,8.944,24.241,14.432Zm-.706,6.131v.013c-.675,1.188-1.938,2.5-3.238,2.081l-.013-.019A24.025,24.025,0,0,1,13.9,19.107a16.34,16.34,0,0,1-2.65-2.65,20.282,20.282,0,0,1-1.925-2.913A18.676,18.676,0,0,1,7.7,10.063c-.419-1.3.888-2.563,2.081-3.238h.012a1.138,1.138,0,0,1,1.494.244s.775.925,1.106,1.381c.313.425.731,1.106.95,1.488A1.305,1.305,0,0,1,13.11,11.6l-.75.6a1.1,1.1,0,0,0-.331.875A7.826,7.826,0,0,0,17.3,18.345a1.1,1.1,0,0,0,.875-.331l.6-.75a1.305,1.305,0,0,1,1.663-.231A16.194,16.194,0,0,1,23.3,19.088a1.117,1.117,0,0,1,.238,1.475Z" transform="translate(18.073 17.998)" fill="#fff"/>
</svg>
